G04*
G04 #@! TF.GenerationSoftware,Altium Limited,Altium Designer,23.7.1 (13)*
G04*
G04 Layer_Color=8388736*
%FSLAX25Y25*%
%MOIN*%
G70*
G04*
G04 #@! TF.SameCoordinates,B06C9E69-D03D-43D7-B58E-4E52A57A25FB*
G04*
G04*
G04 #@! TF.FilePolarity,Negative*
G04*
G01*
G75*
%ADD46R,0.03701X0.03701*%
%ADD47R,0.03110X0.04882*%
%ADD48R,0.03701X0.03701*%
%ADD49R,0.04095X0.05276*%
%ADD50O,0.07244X0.02323*%
%ADD51R,0.05276X0.04095*%
%ADD52R,0.05276X0.05276*%
%ADD53O,0.03110X0.07244*%
%ADD54R,0.04567X0.04606*%
%ADD55C,0.01043*%
%ADD56R,0.03032X0.02717*%
%ADD57R,0.03110X0.03701*%
%ADD58R,0.08425X0.08425*%
G04:AMPARAMS|DCode=59|XSize=13.39mil|YSize=38.58mil|CornerRadius=3.74mil|HoleSize=0mil|Usage=FLASHONLY|Rotation=180.000|XOffset=0mil|YOffset=0mil|HoleType=Round|Shape=RoundedRectangle|*
%AMROUNDEDRECTD59*
21,1,0.01339,0.03110,0,0,180.0*
21,1,0.00591,0.03858,0,0,180.0*
1,1,0.00748,-0.00295,0.01555*
1,1,0.00748,0.00295,0.01555*
1,1,0.00748,0.00295,-0.01555*
1,1,0.00748,-0.00295,-0.01555*
%
%ADD59ROUNDEDRECTD59*%
G04:AMPARAMS|DCode=60|XSize=38.58mil|YSize=13.39mil|CornerRadius=3.74mil|HoleSize=0mil|Usage=FLASHONLY|Rotation=180.000|XOffset=0mil|YOffset=0mil|HoleType=Round|Shape=RoundedRectangle|*
%AMROUNDEDRECTD60*
21,1,0.03858,0.00591,0,0,180.0*
21,1,0.03110,0.01339,0,0,180.0*
1,1,0.00748,-0.01555,0.00295*
1,1,0.00748,0.01555,0.00295*
1,1,0.00748,0.01555,-0.00295*
1,1,0.00748,-0.01555,-0.00295*
%
%ADD60ROUNDEDRECTD60*%
%ADD61R,0.12756X0.12756*%
%ADD62R,0.10000X0.08425*%
%ADD63R,0.02717X0.06260*%
%ADD64R,0.11575X0.06063*%
G04:AMPARAMS|DCode=65|XSize=14.96mil|YSize=29.13mil|CornerRadius=5.12mil|HoleSize=0mil|Usage=FLASHONLY|Rotation=180.000|XOffset=0mil|YOffset=0mil|HoleType=Round|Shape=RoundedRectangle|*
%AMROUNDEDRECTD65*
21,1,0.01496,0.01890,0,0,180.0*
21,1,0.00472,0.02913,0,0,180.0*
1,1,0.01024,-0.00236,0.00945*
1,1,0.01024,0.00236,0.00945*
1,1,0.01024,0.00236,-0.00945*
1,1,0.01024,-0.00236,-0.00945*
%
%ADD65ROUNDEDRECTD65*%
G04:AMPARAMS|DCode=66|XSize=14.96mil|YSize=29.13mil|CornerRadius=5.12mil|HoleSize=0mil|Usage=FLASHONLY|Rotation=90.000|XOffset=0mil|YOffset=0mil|HoleType=Round|Shape=RoundedRectangle|*
%AMROUNDEDRECTD66*
21,1,0.01496,0.01890,0,0,90.0*
21,1,0.00472,0.02913,0,0,90.0*
1,1,0.01024,0.00945,0.00236*
1,1,0.01024,0.00945,-0.00236*
1,1,0.01024,-0.00945,-0.00236*
1,1,0.01024,-0.00945,0.00236*
%
%ADD66ROUNDEDRECTD66*%
%ADD67R,0.11181X0.11181*%
%ADD68R,0.06457X0.11575*%
%ADD69R,0.10000X0.07638*%
%ADD70R,0.08425X0.14331*%
%ADD71R,0.08425X0.24173*%
%ADD72R,0.06457X0.06457*%
%ADD73C,0.06457*%
%ADD74C,0.03110*%
%ADD75O,0.07244X0.04095*%
%ADD76O,0.10000X0.04095*%
%ADD77O,0.07638X0.08425*%
%ADD78R,0.06457X0.06457*%
%ADD79C,0.02520*%
%ADD80C,0.19685*%
D46*
X-30906Y-6496D02*
D03*
X-24606D02*
D03*
X148425Y25394D02*
D03*
X142126D02*
D03*
X135138Y41535D02*
D03*
X128839D02*
D03*
X135138Y36614D02*
D03*
X128839D02*
D03*
X53747Y46869D02*
D03*
X47447D02*
D03*
X44094Y5315D02*
D03*
X37795D02*
D03*
X44094Y492D02*
D03*
X37795D02*
D03*
X15354Y-2362D02*
D03*
X21654D02*
D03*
X20571Y3051D02*
D03*
X26870D02*
D03*
X591Y32087D02*
D03*
X6890D02*
D03*
X1575Y27067D02*
D03*
X-4724D02*
D03*
Y22047D02*
D03*
X1575D02*
D03*
X-4724Y16929D02*
D03*
X1575D02*
D03*
X-18504Y43602D02*
D03*
X-24803D02*
D03*
X591Y46850D02*
D03*
X6890D02*
D03*
X35827Y105118D02*
D03*
X42126D02*
D03*
X115748Y33465D02*
D03*
D47*
X154921Y38583D02*
D03*
X158661D02*
D03*
X162402D02*
D03*
Y29134D02*
D03*
X158661D02*
D03*
X154921Y29134D02*
D03*
D48*
X148327Y31398D02*
D03*
Y37697D02*
D03*
X161417Y8957D02*
D03*
Y15256D02*
D03*
X155709Y5807D02*
D03*
Y-492D02*
D03*
X103937Y35630D02*
D03*
Y29331D02*
D03*
Y-6102D02*
D03*
Y197D02*
D03*
X33858Y67421D02*
D03*
Y73721D02*
D03*
X48228Y25492D02*
D03*
Y31791D02*
D03*
X26280Y14961D02*
D03*
Y21260D02*
D03*
X31201Y14075D02*
D03*
Y20374D02*
D03*
X36122Y14075D02*
D03*
Y20374D02*
D03*
X21358Y14961D02*
D03*
Y21260D02*
D03*
X16437Y14961D02*
D03*
Y21260D02*
D03*
X11319Y14961D02*
D03*
Y21260D02*
D03*
X14370Y69291D02*
D03*
Y62992D02*
D03*
X23917Y70669D02*
D03*
Y64370D02*
D03*
X28839Y70669D02*
D03*
Y64370D02*
D03*
X51673Y84449D02*
D03*
Y78150D02*
D03*
Y64468D02*
D03*
Y70768D02*
D03*
X76858Y66228D02*
D03*
Y72528D02*
D03*
X72039Y72535D02*
D03*
Y66236D02*
D03*
X67315Y64760D02*
D03*
Y71059D02*
D03*
X101862Y66335D02*
D03*
Y72634D02*
D03*
X62492Y66335D02*
D03*
Y72634D02*
D03*
X67709Y57181D02*
D03*
Y50882D02*
D03*
X62492D02*
D03*
Y57181D02*
D03*
X64677Y99850D02*
D03*
Y106150D02*
D03*
X59677Y99850D02*
D03*
Y106150D02*
D03*
X111409Y72535D02*
D03*
Y66236D02*
D03*
X107079Y57181D02*
D03*
Y50882D02*
D03*
X101862D02*
D03*
Y57181D02*
D03*
X106685Y64760D02*
D03*
Y71059D02*
D03*
X116228Y66228D02*
D03*
Y72528D02*
D03*
X99047Y99850D02*
D03*
Y106150D02*
D03*
X104047Y99850D02*
D03*
Y106150D02*
D03*
X141232Y66335D02*
D03*
Y72634D02*
D03*
X155598Y66228D02*
D03*
Y72528D02*
D03*
X146449Y57181D02*
D03*
Y50882D02*
D03*
X141232D02*
D03*
Y57181D02*
D03*
X146055Y64760D02*
D03*
Y71059D02*
D03*
X162402Y44587D02*
D03*
Y50886D02*
D03*
X150779Y72536D02*
D03*
Y66236D02*
D03*
X143417Y99850D02*
D03*
Y106150D02*
D03*
X138417Y99850D02*
D03*
Y106150D02*
D03*
X76378Y31496D02*
D03*
Y25197D02*
D03*
X81496Y31496D02*
D03*
Y25197D02*
D03*
X76476Y3839D02*
D03*
Y10138D02*
D03*
X84547Y-8957D02*
D03*
Y-2657D02*
D03*
D49*
X150394Y4626D02*
D03*
X141339Y4626D02*
D03*
X130780Y92311D02*
D03*
X121724D02*
D03*
X91409D02*
D03*
X82354D02*
D03*
X170150Y92311D02*
D03*
X161094D02*
D03*
D50*
X153150Y11614D02*
D03*
Y14173D02*
D03*
X153150Y16732D02*
D03*
X153150Y19291D02*
D03*
X136614Y11614D02*
D03*
Y14173D02*
D03*
Y16732D02*
D03*
Y19291D02*
D03*
D51*
X127165Y19980D02*
D03*
Y10925D02*
D03*
D52*
X103937Y6988D02*
D03*
Y15256D02*
D03*
X-31890Y44094D02*
D03*
Y52362D02*
D03*
D53*
X54902Y6102D02*
D03*
X59902Y6102D02*
D03*
X64902D02*
D03*
X69902Y6102D02*
D03*
X54902Y34055D02*
D03*
X59902D02*
D03*
X64902D02*
D03*
X69902Y34055D02*
D03*
D54*
X32480Y-925D02*
D03*
Y4862D02*
D03*
D55*
X27559Y-4134D02*
D03*
X26181D02*
D03*
X27559Y-2756D02*
D03*
X26181D02*
D03*
X27559Y-1378D02*
D03*
X26181D02*
D03*
D56*
X22047Y-7874D02*
D03*
X25984D02*
D03*
D57*
X-6890Y12303D02*
D03*
X-984D02*
D03*
D58*
X5118Y95276D02*
D03*
X-18504Y95276D02*
D03*
X4724Y62992D02*
D03*
X-18898D02*
D03*
D59*
X38583Y56437D02*
D03*
X37008D02*
D03*
X35433D02*
D03*
X33858D02*
D03*
X32283D02*
D03*
X30709D02*
D03*
X29134D02*
D03*
X27559D02*
D03*
X25984D02*
D03*
X24409D02*
D03*
X22835D02*
D03*
X21260D02*
D03*
X19685D02*
D03*
X18110D02*
D03*
Y29390D02*
D03*
X19685D02*
D03*
X21260D02*
D03*
X22835Y29390D02*
D03*
X24409D02*
D03*
X25984D02*
D03*
X27559D02*
D03*
X29134D02*
D03*
X30709D02*
D03*
X32283D02*
D03*
X33858D02*
D03*
X35433Y29390D02*
D03*
X37008D02*
D03*
X38583D02*
D03*
D60*
X41870Y32677D02*
D03*
Y34252D02*
D03*
Y35827D02*
D03*
Y37402D02*
D03*
Y38976D02*
D03*
Y40551D02*
D03*
Y42126D02*
D03*
Y43701D02*
D03*
Y45276D02*
D03*
Y46850D02*
D03*
Y48425D02*
D03*
Y50000D02*
D03*
Y51575D02*
D03*
Y53150D02*
D03*
X14823D02*
D03*
Y51575D02*
D03*
Y50000D02*
D03*
Y48425D02*
D03*
Y46850D02*
D03*
Y45276D02*
D03*
Y43701D02*
D03*
Y42126D02*
D03*
Y40551D02*
D03*
Y38976D02*
D03*
Y37402D02*
D03*
Y35827D02*
D03*
Y34252D02*
D03*
Y32677D02*
D03*
D61*
X28346Y42913D02*
D03*
D62*
X42618Y66437D02*
D03*
Y82185D02*
D03*
D63*
X75386Y57476D02*
D03*
Y48224D02*
D03*
X114756Y57476D02*
D03*
Y48224D02*
D03*
X154126Y57476D02*
D03*
Y48224D02*
D03*
D64*
X85882Y84232D02*
D03*
Y74390D02*
D03*
X125252Y84232D02*
D03*
Y74390D02*
D03*
X164622Y84232D02*
D03*
Y74390D02*
D03*
D65*
X65284Y77787D02*
D03*
X67252D02*
D03*
X69221D02*
D03*
X71189D02*
D03*
X73158D02*
D03*
Y92748D02*
D03*
X71189D02*
D03*
X69221D02*
D03*
X67252D02*
D03*
X65284D02*
D03*
X118701Y38976D02*
D03*
X116732D02*
D03*
X114764D02*
D03*
X112795D02*
D03*
Y27953D02*
D03*
X114764D02*
D03*
X116732D02*
D03*
X118701D02*
D03*
X104654Y92748D02*
D03*
X106622D02*
D03*
X108591D02*
D03*
X110559D02*
D03*
X112528D02*
D03*
Y77787D02*
D03*
X110559D02*
D03*
X108591D02*
D03*
X106622D02*
D03*
X104654D02*
D03*
X144024Y77787D02*
D03*
X145992D02*
D03*
X147961D02*
D03*
X149929D02*
D03*
X151898D02*
D03*
Y92748D02*
D03*
X149929D02*
D03*
X147961D02*
D03*
X145992D02*
D03*
X144024D02*
D03*
D66*
X76701Y81331D02*
D03*
Y83299D02*
D03*
Y85268D02*
D03*
Y87236D02*
D03*
Y89205D02*
D03*
X61740D02*
D03*
Y87236D02*
D03*
Y85268D02*
D03*
Y83299D02*
D03*
Y81331D02*
D03*
X110236Y36417D02*
D03*
Y34449D02*
D03*
Y32480D02*
D03*
Y30512D02*
D03*
X121260D02*
D03*
Y32480D02*
D03*
Y34449D02*
D03*
Y36417D02*
D03*
X101110Y81331D02*
D03*
Y83299D02*
D03*
Y85268D02*
D03*
Y87236D02*
D03*
Y89205D02*
D03*
X116071D02*
D03*
Y87236D02*
D03*
Y85268D02*
D03*
Y83299D02*
D03*
Y81331D02*
D03*
X155441Y81331D02*
D03*
Y83299D02*
D03*
Y85268D02*
D03*
Y87236D02*
D03*
Y89205D02*
D03*
X140480D02*
D03*
Y87236D02*
D03*
Y85268D02*
D03*
Y83299D02*
D03*
Y81331D02*
D03*
D67*
X69221Y85268D02*
D03*
X108591D02*
D03*
X147961Y85268D02*
D03*
D68*
X75665Y102811D02*
D03*
X86689D02*
D03*
X115035D02*
D03*
X126059D02*
D03*
X154405Y102811D02*
D03*
X165429D02*
D03*
D69*
X145346Y118811D02*
D03*
X161488D02*
D03*
X105976Y118811D02*
D03*
X122118D02*
D03*
X66606D02*
D03*
X82748D02*
D03*
D70*
X145669Y136811D02*
D03*
X161417D02*
D03*
X106299Y136811D02*
D03*
X122047D02*
D03*
X66929D02*
D03*
X82677D02*
D03*
D71*
X145669Y173228D02*
D03*
X161417D02*
D03*
X106299Y173228D02*
D03*
X122047D02*
D03*
X66929Y173228D02*
D03*
X82677Y173228D02*
D03*
D72*
X-30709Y73071D02*
D03*
D73*
Y83071D02*
D03*
Y93071D02*
D03*
Y103071D02*
D03*
Y113071D02*
D03*
Y123071D02*
D03*
X18740Y94882D02*
D03*
X28740D02*
D03*
X38740D02*
D03*
D74*
X-13543Y29823D02*
D03*
Y26476D02*
D03*
Y23130D02*
D03*
Y19783D02*
D03*
Y16437D02*
D03*
Y13091D02*
D03*
Y9744D02*
D03*
Y6398D02*
D03*
X-18858Y6398D02*
D03*
X-18858Y9744D02*
D03*
X-18858Y13091D02*
D03*
Y16437D02*
D03*
Y19783D02*
D03*
Y23130D02*
D03*
X-18858Y26476D02*
D03*
X-18858Y29823D02*
D03*
D75*
X-30709Y35138D02*
D03*
Y1083D02*
D03*
D76*
X-17402Y35138D02*
D03*
Y1083D02*
D03*
D77*
X44055Y-8268D02*
D03*
X54055D02*
D03*
X64055D02*
D03*
X74055D02*
D03*
D78*
X48740Y94882D02*
D03*
D79*
X115748Y33465D02*
D03*
D80*
X0Y0D02*
D03*
Y118110D02*
D03*
X118110Y0D02*
D03*
M02*
