G04*
G04 #@! TF.GenerationSoftware,Altium Limited,Altium Designer,23.7.1 (13)*
G04*
G04 Layer_Physical_Order=2*
G04 Layer_Color=16711680*
%FSLAX25Y25*%
%MOIN*%
G70*
G04*
G04 #@! TF.SameCoordinates,B06C9E69-D03D-43D7-B58E-4E52A57A25FB*
G04*
G04*
G04 #@! TF.FilePolarity,Positive*
G04*
G01*
G75*
%ADD10C,0.00984*%
%ADD12C,0.02362*%
%ADD13C,0.00787*%
%ADD17C,0.01181*%
%ADD83C,0.00512*%
%ADD86C,0.00591*%
%ADD88C,0.03937*%
%ADD90C,0.03543*%
%ADD95R,0.05906X0.05906*%
%ADD96C,0.05906*%
%ADD97C,0.02559*%
%ADD98O,0.06693X0.03543*%
%ADD99O,0.09449X0.03543*%
%ADD100O,0.07087X0.07874*%
%ADD101R,0.05906X0.05906*%
%ADD102C,0.01968*%
%ADD103C,0.10236*%
%ADD104C,0.02362*%
G36*
X47835Y98307D02*
X45315D01*
Y91457D01*
X50079D01*
X55512Y86024D01*
Y53248D01*
X56364Y52396D01*
X51603Y47635D01*
X38727D01*
X38705Y47689D01*
X38240Y48154D01*
X37632Y48406D01*
X36974D01*
X36367Y48154D01*
X35901Y47689D01*
X35650Y47081D01*
Y46423D01*
X35901Y45815D01*
X36367Y45350D01*
X36974Y45098D01*
X37632D01*
X38240Y45350D01*
X38705Y45815D01*
X38727Y45869D01*
X51968D01*
X52306Y45936D01*
X52593Y46128D01*
X57613Y51147D01*
X58957Y49803D01*
X93730D01*
X94520Y49275D01*
X95473Y49086D01*
X117950D01*
X118903Y49275D01*
X119429Y49627D01*
X119614Y49580D01*
X119766Y49025D01*
X118985Y48244D01*
X118833Y48307D01*
X118175D01*
X117567Y48055D01*
X117102Y47590D01*
X116850Y46982D01*
Y46325D01*
X116395Y46117D01*
X112407D01*
X112327Y46311D01*
X111862Y46776D01*
X111254Y47028D01*
X110596D01*
X109989Y46776D01*
X109523Y46311D01*
X109272Y45703D01*
Y45045D01*
X109523Y44437D01*
X109989Y43972D01*
X110596Y43720D01*
X111254D01*
X111862Y43972D01*
X112327Y44437D01*
X112407Y44631D01*
X117224D01*
X117509Y44688D01*
X117750Y44849D01*
X117981Y45080D01*
X118175Y45000D01*
X118833D01*
X119441Y45252D01*
X119906Y45717D01*
X120158Y46325D01*
Y46982D01*
X120060Y47218D01*
X122645Y49803D01*
X131455D01*
X133102Y48156D01*
X133343Y47995D01*
X133627Y47938D01*
X155327D01*
X155651Y47526D01*
X155630Y47475D01*
Y46817D01*
X155882Y46209D01*
X156347Y45744D01*
X156955Y45492D01*
X157612D01*
X158220Y45744D01*
X158685Y46209D01*
X158937Y46817D01*
Y47475D01*
X158685Y48082D01*
X158220Y48548D01*
X158138Y48581D01*
X158105Y48845D01*
X158140Y49122D01*
X158883Y49618D01*
X163103Y53839D01*
X166756D01*
X168692Y51902D01*
Y-9973D01*
X166272Y-12393D01*
X77084D01*
X76923Y-11920D01*
X77144Y-11750D01*
X77838Y-10846D01*
X78274Y-9792D01*
X78397Y-8858D01*
X74055D01*
X69713D01*
X69836Y-9792D01*
X70272Y-10846D01*
X70966Y-11750D01*
X71187Y-11920D01*
X71027Y-12393D01*
X66610D01*
X66440Y-11893D01*
X66919Y-11525D01*
X67563Y-10687D01*
X67967Y-9710D01*
X68106Y-8661D01*
Y-7874D01*
X67967Y-6826D01*
X67563Y-5849D01*
X66919Y-5010D01*
X66080Y-4366D01*
X65103Y-3962D01*
X64055Y-3824D01*
X63007Y-3962D01*
X62030Y-4366D01*
X61191Y-5010D01*
X60547Y-5849D01*
X60143Y-6826D01*
X60005Y-7874D01*
Y-8661D01*
X60143Y-9710D01*
X60547Y-10687D01*
X61191Y-11525D01*
X61670Y-11893D01*
X61500Y-12393D01*
X56610D01*
X56440Y-11893D01*
X56919Y-11525D01*
X57563Y-10687D01*
X57968Y-9710D01*
X58105Y-8661D01*
Y-7874D01*
X57968Y-6826D01*
X57563Y-5849D01*
X56919Y-5010D01*
X56080Y-4366D01*
X55103Y-3962D01*
X54055Y-3824D01*
X53007Y-3962D01*
X52030Y-4366D01*
X51785Y-4554D01*
X49462Y-2231D01*
X49221Y-2070D01*
X48937Y-2013D01*
X41240D01*
X40956Y-2070D01*
X40715Y-2231D01*
X36405Y-6541D01*
X23156D01*
X16432Y184D01*
Y6643D01*
X16375Y6927D01*
X16214Y7168D01*
X15230Y8152D01*
Y13171D01*
X15173Y13455D01*
X15012Y13696D01*
X12238Y16470D01*
X11997Y16631D01*
X11713Y16688D01*
X7132D01*
X6928Y17188D01*
X7144Y17708D01*
Y17838D01*
X7603Y18298D01*
X7974Y18372D01*
X8326Y18606D01*
X12304Y22584D01*
X12658Y22938D01*
X17205Y18391D01*
Y12476D01*
X17355Y12115D01*
X17405Y12064D01*
X17579Y11644D01*
Y11190D01*
X17405Y10770D01*
X17355Y10720D01*
X17205Y10358D01*
Y8760D01*
X17355Y8398D01*
X21686Y4067D01*
X22047Y3918D01*
X31693D01*
X32054Y4067D01*
X32645Y4658D01*
X32795Y5020D01*
Y6890D01*
X32645Y7251D01*
X29200Y10696D01*
X28839Y10846D01*
X27535D01*
X27174Y10696D01*
X26926Y10449D01*
X26507Y10275D01*
X26052D01*
X25633Y10449D01*
X25311Y10770D01*
X25137Y11190D01*
Y11644D01*
X25311Y12064D01*
X25633Y12386D01*
X25688Y12409D01*
X25760Y12480D01*
X25854Y12519D01*
X25893Y12613D01*
X25965Y12685D01*
Y12787D01*
X26004Y12881D01*
Y15930D01*
X27771Y17697D01*
X35728D01*
X36090Y17847D01*
X41208Y22965D01*
X41358Y23327D01*
Y33858D01*
X41208Y34220D01*
X41040Y34290D01*
X39239Y36090D01*
X38878Y36240D01*
X33169D01*
X32808Y36090D01*
X32302Y35584D01*
X32233Y35555D01*
X31767Y35090D01*
X31739Y35021D01*
X29513Y32795D01*
X27574D01*
X25362Y35007D01*
X25000Y35157D01*
X20586D01*
X19456Y36287D01*
X19094Y36437D01*
X10630D01*
X10268Y36287D01*
X7848Y33867D01*
X7512Y33728D01*
X7363Y33366D01*
Y28445D01*
X7512Y28083D01*
X9519Y26077D01*
X9519Y25370D01*
X6448Y22299D01*
X6427Y22320D01*
X5819Y22572D01*
X5161D01*
X4553Y22320D01*
X4088Y21855D01*
X3837Y21247D01*
Y20590D01*
X4088Y19982D01*
X4266Y19805D01*
X4523Y19478D01*
X4266Y19151D01*
X4088Y18974D01*
X3837Y18366D01*
Y17708D01*
X4052Y17188D01*
X3848Y16688D01*
X-703D01*
X-987Y16631D01*
X-1228Y16470D01*
X-11014Y6684D01*
X-11512Y6894D01*
X-11791Y7569D01*
X-12190Y7967D01*
X-12372Y8150D01*
X-12193Y8617D01*
X-12058Y8752D01*
X-11791Y9396D01*
Y10093D01*
X-12058Y10736D01*
X-12434Y11112D01*
X-12506Y11417D01*
X-12434Y11722D01*
X-12058Y12098D01*
X-11791Y12742D01*
Y13439D01*
X-12058Y14083D01*
X-12434Y14459D01*
X-12506Y14764D01*
X-12434Y15069D01*
X-12058Y15445D01*
X-11791Y16089D01*
Y16785D01*
X-12058Y17429D01*
X-12434Y17805D01*
X-12506Y18110D01*
X-12434Y18415D01*
X-12058Y18791D01*
X-11791Y19435D01*
Y20132D01*
X-12058Y20776D01*
X-12434Y21152D01*
X-12506Y21457D01*
X-12434Y21761D01*
X-12058Y22138D01*
X-11791Y22781D01*
Y23478D01*
X-12058Y24122D01*
X-12434Y24498D01*
X-12506Y24803D01*
X-12434Y25108D01*
X-12058Y25484D01*
X-11791Y26128D01*
Y26825D01*
X-12058Y27469D01*
X-12193Y27604D01*
X-12372Y28071D01*
X-12190Y28253D01*
X-11791Y28652D01*
X-11551Y29232D01*
X-13543D01*
X-15536D01*
X-15296Y28652D01*
X-14897Y28253D01*
X-14714Y28071D01*
X-14894Y27604D01*
X-15029Y27469D01*
X-15295Y26825D01*
Y26128D01*
X-15029Y25484D01*
X-14653Y25108D01*
X-14580Y24803D01*
X-14653Y24498D01*
X-15029Y24122D01*
X-15295Y23478D01*
Y22781D01*
X-15029Y22138D01*
X-14653Y21761D01*
X-14580Y21457D01*
X-14653Y21152D01*
X-15029Y20776D01*
X-15295Y20132D01*
Y19961D01*
X-16718Y19065D01*
X-17119Y19403D01*
X-17106Y19435D01*
Y20132D01*
X-17373Y20776D01*
X-17749Y21152D01*
X-17821Y21457D01*
X-17749Y21761D01*
X-17373Y22138D01*
X-17106Y22781D01*
Y23478D01*
X-17373Y24122D01*
X-17749Y24498D01*
X-17821Y24803D01*
X-17749Y25108D01*
X-17373Y25484D01*
X-17106Y26128D01*
Y26825D01*
X-17373Y27469D01*
X-17508Y27604D01*
X-17687Y28071D01*
X-17504Y28253D01*
X-17106Y28652D01*
X-16866Y29232D01*
X-18858D01*
X-20851D01*
X-20610Y28652D01*
X-20212Y28253D01*
X-20029Y28071D01*
X-20209Y27604D01*
X-20344Y27469D01*
X-20610Y26825D01*
Y26128D01*
X-20344Y25484D01*
X-19967Y25108D01*
X-19895Y24803D01*
X-19967Y24498D01*
X-20344Y24122D01*
X-20610Y23478D01*
Y22781D01*
X-20344Y22138D01*
X-19967Y21761D01*
X-19895Y21457D01*
X-19967Y21152D01*
X-20344Y20776D01*
X-20610Y20132D01*
Y19435D01*
X-20344Y18791D01*
X-19967Y18415D01*
X-19895Y18110D01*
X-19967Y17805D01*
X-20344Y17429D01*
X-20610Y16785D01*
Y16089D01*
X-20344Y15445D01*
X-19967Y15069D01*
X-19895Y14764D01*
X-19967Y14459D01*
X-20344Y14083D01*
X-20610Y13439D01*
Y12742D01*
X-20344Y12098D01*
X-19967Y11722D01*
X-19895Y11417D01*
X-19967Y11112D01*
X-20344Y10736D01*
X-20610Y10093D01*
Y9396D01*
X-20344Y8752D01*
X-20209Y8617D01*
X-20029Y8150D01*
X-20212Y7967D01*
X-20610Y7568D01*
X-20851Y6988D01*
X-18858D01*
X-16866D01*
X-17106Y7568D01*
X-17504Y7967D01*
X-17687Y8150D01*
X-17508Y8617D01*
X-17373Y8752D01*
X-17106Y9396D01*
Y10093D01*
X-17373Y10736D01*
X-17749Y11112D01*
X-17821Y11417D01*
X-17749Y11722D01*
X-17373Y12098D01*
X-17106Y12742D01*
Y13439D01*
X-17373Y14083D01*
X-17749Y14459D01*
X-17821Y14764D01*
X-17749Y15069D01*
X-17373Y15445D01*
X-17106Y16089D01*
Y16259D01*
X-15683Y17155D01*
X-15282Y16817D01*
X-15295Y16785D01*
Y16089D01*
X-15029Y15445D01*
X-14653Y15069D01*
X-14580Y14764D01*
X-14653Y14459D01*
X-15029Y14083D01*
X-15295Y13439D01*
Y12742D01*
X-15029Y12098D01*
X-14653Y11722D01*
X-14580Y11417D01*
X-14653Y11112D01*
X-15029Y10736D01*
X-15295Y10093D01*
Y9396D01*
X-15029Y8752D01*
X-14894Y8617D01*
X-14714Y8150D01*
X-14897Y7967D01*
X-15296Y7569D01*
X-15536Y6988D01*
X-13543D01*
Y6398D01*
X-12953D01*
Y4402D01*
X-12455Y4070D01*
Y3409D01*
X-12955Y3162D01*
X-13158Y3318D01*
X-13781Y3576D01*
X-14449Y3664D01*
X-16811D01*
Y1083D01*
Y-1498D01*
X-14449D01*
X-13781Y-1410D01*
X-13158Y-1153D01*
X-12955Y-997D01*
X-12455Y-1243D01*
Y-9929D01*
X-17177Y-14650D01*
X-30559D01*
X-34336Y-10874D01*
Y-1199D01*
X-33836Y-952D01*
X-33574Y-1153D01*
X-32952Y-1410D01*
X-32283Y-1498D01*
X-31299D01*
Y1083D01*
Y3664D01*
X-32283D01*
X-32952Y3576D01*
X-33574Y3318D01*
X-33836Y3117D01*
X-34336Y3364D01*
Y32857D01*
X-33836Y33103D01*
X-33574Y32903D01*
X-32952Y32645D01*
X-32283Y32557D01*
X-31299D01*
Y35138D01*
Y37719D01*
X-32283D01*
X-32952Y37631D01*
X-33574Y37373D01*
X-33836Y37172D01*
X-34336Y37419D01*
Y69331D01*
X-31299D01*
Y73071D01*
Y76811D01*
X-34336D01*
Y81514D01*
X-33836Y81636D01*
X-33450Y80968D01*
X-32812Y80330D01*
X-32031Y79879D01*
X-31160Y79646D01*
X-30258D01*
X-29387Y79879D01*
X-28605Y80330D01*
X-27968Y80968D01*
X-27517Y81749D01*
X-27362Y82328D01*
X-25793D01*
X-25713Y82134D01*
X-25248Y81669D01*
X-24640Y81417D01*
X-23982D01*
X-23374Y81669D01*
X-22909Y82134D01*
X-22658Y82742D01*
Y83400D01*
X-22909Y84008D01*
X-23374Y84473D01*
X-23982Y84724D01*
X-24640D01*
X-25248Y84473D01*
X-25713Y84008D01*
X-25793Y83814D01*
X-27362D01*
X-27517Y84393D01*
X-27968Y85174D01*
X-28605Y85812D01*
X-29387Y86263D01*
X-29512Y86296D01*
X-29446Y86796D01*
X-24165D01*
X-18010Y80641D01*
X-18090Y80447D01*
Y79789D01*
X-17839Y79181D01*
X-17374Y78716D01*
X-16766Y78465D01*
X-16108D01*
X-15500Y78716D01*
X-15035Y79181D01*
X-14784Y79789D01*
Y80447D01*
X-15019Y81016D01*
X-14947Y81219D01*
X-14789Y81516D01*
X-14435D01*
X-13827Y81767D01*
X-13362Y82233D01*
X-13110Y82840D01*
Y83498D01*
X-13362Y84106D01*
X-13827Y84571D01*
X-14435Y84823D01*
X-15093D01*
X-15700Y84571D01*
X-16166Y84106D01*
X-16246Y83912D01*
X-17704D01*
X-22900Y89108D01*
X-23141Y89269D01*
X-23425Y89325D01*
X-29522D01*
X-29587Y89825D01*
X-29387Y89879D01*
X-28605Y90330D01*
X-27968Y90968D01*
X-27517Y91749D01*
X-27283Y92620D01*
Y93522D01*
X-27517Y94393D01*
X-27968Y95174D01*
X-28605Y95812D01*
X-29387Y96263D01*
X-30258Y96496D01*
X-31160D01*
X-32031Y96263D01*
X-32812Y95812D01*
X-33450Y95174D01*
X-33900Y94393D01*
X-34134Y93522D01*
Y92620D01*
X-33900Y91749D01*
X-33450Y90968D01*
X-32812Y90330D01*
X-32031Y89879D01*
X-31830Y89825D01*
X-31896Y89325D01*
X-33661D01*
X-33946Y89269D01*
X-34187Y89108D01*
X-36057Y87238D01*
X-36518Y87429D01*
Y128768D01*
X-29162Y136125D01*
X47835D01*
Y98307D01*
D02*
G37*
G36*
X173133Y112243D02*
X173133Y55119D01*
X173130Y55118D01*
X172516D01*
X169181Y58453D01*
X168374Y58992D01*
X167421Y59182D01*
X162438D01*
X161486Y58992D01*
X160678Y58453D01*
X157344Y55118D01*
X153248D01*
X151816Y56550D01*
X151941Y56852D01*
Y57510D01*
X151689Y58118D01*
X151224Y58583D01*
X150616Y58835D01*
X149959D01*
X149656Y58710D01*
X149315Y59051D01*
X132047D01*
X131116Y59983D01*
X130862Y60152D01*
X130562Y60212D01*
X121935D01*
X121635Y60152D01*
X121381Y59983D01*
X121381Y59983D01*
X120450Y59051D01*
X92973D01*
X92041Y59983D01*
X91787Y60152D01*
X91488Y60212D01*
X82565D01*
X82265Y60152D01*
X82011Y59983D01*
X81080Y59051D01*
X60228D01*
X58265Y61014D01*
Y86240D01*
X58260Y86266D01*
Y112299D01*
X172779Y112596D01*
X173133Y112243D01*
D02*
G37*
G36*
X20374Y34646D02*
X25000D01*
X27362Y32283D01*
X29724D01*
X33169Y35728D01*
X38878D01*
X40748Y33858D01*
X40846D01*
Y23327D01*
X35728Y18209D01*
X27559D01*
X25492Y16142D01*
Y12881D01*
X25343Y12819D01*
X24878Y12354D01*
X24626Y11746D01*
Y11088D01*
X24878Y10481D01*
X25343Y10016D01*
X25951Y9764D01*
X26608D01*
X27216Y10016D01*
X27535Y10335D01*
X28839D01*
X32283Y6890D01*
Y5020D01*
X31693Y4429D01*
X22047D01*
X17717Y8760D01*
Y10358D01*
X17839Y10481D01*
X18090Y11088D01*
Y11746D01*
X17839Y12354D01*
X17717Y12476D01*
Y18602D01*
X13019Y23300D01*
X13393Y23674D01*
X13393Y23674D01*
X13393Y23674D01*
X17671Y27952D01*
X21751D01*
Y26850D01*
X21718D01*
X21111Y26599D01*
X20645Y26133D01*
X20394Y25526D01*
Y24868D01*
X20645Y24260D01*
X21111Y23795D01*
X21718Y23543D01*
X22376D01*
X22984Y23795D01*
X23311Y24122D01*
X23622Y24211D01*
X23933Y24122D01*
X24260Y23795D01*
X24868Y23543D01*
X25526D01*
X26133Y23795D01*
X26599Y24260D01*
X26850Y24868D01*
Y25526D01*
X26599Y26133D01*
X26133Y26599D01*
X25690Y26782D01*
Y29376D01*
X25608Y29790D01*
X25373Y30142D01*
X23941Y31574D01*
X23589Y31808D01*
X23175Y31891D01*
X16488D01*
X16074Y31808D01*
X15722Y31574D01*
X15722Y31573D01*
X10234Y26085D01*
X7874Y28445D01*
Y33366D01*
X8071D01*
X10630Y35925D01*
X19094D01*
X20374Y34646D01*
D02*
G37*
G36*
X21916Y-8793D02*
X22157Y-8954D01*
X22441Y-9010D01*
X40051D01*
X40143Y-9710D01*
X40547Y-10687D01*
X41191Y-11525D01*
X41670Y-11893D01*
X41500Y-12393D01*
X17783D01*
X14198Y-8808D01*
Y-6112D01*
X14319Y-5931D01*
X14493Y-5055D01*
X14493Y-5055D01*
Y-2023D01*
X14955Y-1832D01*
X21916Y-8793D01*
D02*
G37*
%LPC*%
G36*
X-30258Y126496D02*
X-31160D01*
X-32031Y126263D01*
X-32812Y125812D01*
X-33450Y125174D01*
X-33900Y124393D01*
X-34134Y123522D01*
Y122620D01*
X-33900Y121749D01*
X-33450Y120968D01*
X-32812Y120330D01*
X-32031Y119879D01*
X-31160Y119646D01*
X-30258D01*
X-29387Y119879D01*
X-28605Y120330D01*
X-27968Y120968D01*
X-27517Y121749D01*
X-27283Y122620D01*
Y123522D01*
X-27517Y124393D01*
X-27968Y125174D01*
X-28605Y125812D01*
X-29387Y126263D01*
X-30258Y126496D01*
D02*
G37*
G36*
Y116496D02*
X-31160D01*
X-32031Y116263D01*
X-32812Y115812D01*
X-33450Y115174D01*
X-33900Y114393D01*
X-34134Y113522D01*
Y112620D01*
X-33900Y111749D01*
X-33450Y110968D01*
X-32812Y110330D01*
X-32031Y109879D01*
X-31160Y109646D01*
X-30258D01*
X-29387Y109879D01*
X-28605Y110330D01*
X-27968Y110968D01*
X-27517Y111749D01*
X-27333Y112436D01*
X-25650D01*
X-25614Y112351D01*
X-25149Y111886D01*
X-24542Y111634D01*
X-23884D01*
X-23276Y111886D01*
X-22811Y112351D01*
X-22559Y112959D01*
Y113616D01*
X-22811Y114224D01*
X-23276Y114689D01*
X-23884Y114941D01*
X-24542D01*
X-25149Y114689D01*
X-25614Y114224D01*
X-25740Y113922D01*
X-27391D01*
X-27517Y114393D01*
X-27968Y115174D01*
X-28605Y115812D01*
X-29387Y116263D01*
X-30258Y116496D01*
D02*
G37*
G36*
X821Y128543D02*
X-821D01*
X-2443Y128286D01*
X-4005Y127779D01*
X-5468Y127033D01*
X-6797Y126068D01*
X-7958Y124907D01*
X-8923Y123578D01*
X-9669Y122115D01*
X-10176Y120553D01*
X-10433Y118931D01*
Y117289D01*
X-10176Y115667D01*
X-9669Y114105D01*
X-8923Y112642D01*
X-7958Y111314D01*
X-6797Y110152D01*
X-5468Y109187D01*
X-4005Y108441D01*
X-2443Y107934D01*
X-821Y107677D01*
X821D01*
X2443Y107934D01*
X4005Y108441D01*
X5468Y109187D01*
X6797Y110152D01*
X7958Y111314D01*
X8923Y112642D01*
X9669Y114105D01*
X10176Y115667D01*
X10433Y117289D01*
Y118931D01*
X10176Y120553D01*
X9669Y122115D01*
X8923Y123578D01*
X7958Y124907D01*
X6797Y126068D01*
X5468Y127033D01*
X4005Y127779D01*
X2443Y128286D01*
X821Y128543D01*
D02*
G37*
G36*
X-30258Y106496D02*
X-31160D01*
X-32031Y106263D01*
X-32812Y105812D01*
X-33450Y105174D01*
X-33900Y104393D01*
X-34134Y103522D01*
Y102620D01*
X-33900Y101749D01*
X-33450Y100968D01*
X-32812Y100330D01*
X-32031Y99879D01*
X-31160Y99646D01*
X-30258D01*
X-29387Y99879D01*
X-28605Y100330D01*
X-27968Y100968D01*
X-27517Y101749D01*
X-27285Y102614D01*
X-25523D01*
X-25149Y102240D01*
X-24542Y101988D01*
X-23884D01*
X-23276Y102240D01*
X-22811Y102705D01*
X-22559Y103313D01*
Y103971D01*
X-22811Y104578D01*
X-23276Y105043D01*
X-23884Y105295D01*
X-24542D01*
X-25149Y105043D01*
X-25614Y104578D01*
X-25813Y104099D01*
X-27438D01*
X-27517Y104393D01*
X-27968Y105174D01*
X-28605Y105812D01*
X-29387Y106263D01*
X-30258Y106496D01*
D02*
G37*
G36*
X29331Y98596D02*
Y95472D01*
X32454D01*
X32225Y96325D01*
X31733Y97178D01*
X31037Y97875D01*
X30184Y98367D01*
X29331Y98596D01*
D02*
G37*
G36*
X28150D02*
X27297Y98367D01*
X26444Y97875D01*
X25747Y97178D01*
X25255Y96325D01*
X25026Y95472D01*
X28150D01*
Y98596D01*
D02*
G37*
G36*
X39191Y98307D02*
X38289D01*
X37418Y98074D01*
X36637Y97623D01*
X35999Y96985D01*
X35548Y96204D01*
X35315Y95333D01*
Y94431D01*
X35548Y93560D01*
X35999Y92779D01*
X36637Y92141D01*
X37418Y91690D01*
X38289Y91457D01*
X39191D01*
X40062Y91690D01*
X40843Y92141D01*
X41481Y92779D01*
X41932Y93560D01*
X42165Y94431D01*
Y95333D01*
X41932Y96204D01*
X41481Y96985D01*
X40843Y97623D01*
X40062Y98074D01*
X39191Y98307D01*
D02*
G37*
G36*
X19191D02*
X18289D01*
X17418Y98074D01*
X16637Y97623D01*
X15999Y96985D01*
X15548Y96204D01*
X15315Y95333D01*
Y94431D01*
X15548Y93560D01*
X15999Y92779D01*
X16637Y92141D01*
X17418Y91690D01*
X18289Y91457D01*
X19191D01*
X20062Y91690D01*
X20843Y92141D01*
X21481Y92779D01*
X21932Y93560D01*
X22165Y94431D01*
Y95333D01*
X21932Y96204D01*
X21481Y96985D01*
X20843Y97623D01*
X20062Y98074D01*
X19191Y98307D01*
D02*
G37*
G36*
X32454Y94291D02*
X29331D01*
Y91168D01*
X30184Y91397D01*
X31037Y91889D01*
X31733Y92585D01*
X32225Y93438D01*
X32454Y94291D01*
D02*
G37*
G36*
X28150D02*
X25026D01*
X25255Y93438D01*
X25747Y92585D01*
X26444Y91889D01*
X27297Y91397D01*
X28150Y91168D01*
Y94291D01*
D02*
G37*
G36*
X-26969Y76811D02*
X-30118D01*
Y73661D01*
X-26969D01*
Y76811D01*
D02*
G37*
G36*
Y72480D02*
X-30118D01*
Y69331D01*
X-26969D01*
Y72480D01*
D02*
G37*
G36*
X29994Y53954D02*
X29336D01*
X28728Y53703D01*
X28263Y53237D01*
X28011Y52630D01*
Y51972D01*
X28263Y51364D01*
X28728Y50899D01*
X29336Y50647D01*
X29994D01*
X30601Y50899D01*
X31066Y51364D01*
X31318Y51972D01*
Y52630D01*
X31066Y53237D01*
X30601Y53703D01*
X29994Y53954D01*
D02*
G37*
G36*
X18459Y48701D02*
X17801D01*
X17193Y48449D01*
X16728Y47984D01*
X16476Y47376D01*
Y46718D01*
X16728Y46111D01*
X17193Y45645D01*
X17801Y45394D01*
X18459D01*
X19067Y45645D01*
X19532Y46111D01*
X19783Y46718D01*
Y47376D01*
X19532Y47984D01*
X19067Y48449D01*
X18459Y48701D01*
D02*
G37*
G36*
X-14449Y37719D02*
X-16811D01*
Y35728D01*
X-11945D01*
X-11956Y35806D01*
X-12213Y36428D01*
X-12624Y36963D01*
X-13158Y37373D01*
X-13781Y37631D01*
X-14449Y37719D01*
D02*
G37*
G36*
X-17992D02*
X-20354D01*
X-21022Y37631D01*
X-21645Y37373D01*
X-22179Y36963D01*
X-22590Y36428D01*
X-22848Y35806D01*
X-22858Y35728D01*
X-17992D01*
Y37719D01*
D02*
G37*
G36*
X-29134D02*
X-30118D01*
Y35728D01*
X-26630D01*
X-26641Y35806D01*
X-26899Y36428D01*
X-27309Y36963D01*
X-27843Y37373D01*
X-28466Y37631D01*
X-29134Y37719D01*
D02*
G37*
G36*
X115157Y35138D02*
X114744Y34966D01*
X114246Y34468D01*
X114075Y34055D01*
X115157D01*
Y35138D01*
D02*
G37*
G36*
X-11945Y34547D02*
X-16811D01*
Y32557D01*
X-14449D01*
X-13781Y32645D01*
X-13158Y32903D01*
X-12624Y33313D01*
X-12213Y33847D01*
X-11956Y34470D01*
X-11945Y34547D01*
D02*
G37*
G36*
X-17992D02*
X-22858D01*
X-22848Y34470D01*
X-22590Y33847D01*
X-22179Y33313D01*
X-21645Y32903D01*
X-21022Y32645D01*
X-20354Y32557D01*
X-17992D01*
Y34547D01*
D02*
G37*
G36*
X-26630D02*
X-30118D01*
Y32557D01*
X-29134D01*
X-28466Y32645D01*
X-27843Y32903D01*
X-27309Y33313D01*
X-26899Y33847D01*
X-26641Y34470D01*
X-26630Y34547D01*
D02*
G37*
G36*
X153248Y41392D02*
X148327D01*
X148043Y41336D01*
X147802Y41175D01*
X138472Y31845D01*
X134377D01*
X128354Y37868D01*
X128113Y38029D01*
X127829Y38085D01*
X122663D01*
X122379Y38029D01*
X122138Y37868D01*
X117982Y33711D01*
X117479Y33915D01*
X117250Y34468D01*
X116752Y34966D01*
X116339Y35138D01*
Y33465D01*
X115748D01*
Y32874D01*
X114075D01*
X114090Y32837D01*
X113756Y32337D01*
X106804D01*
X100525Y38616D01*
X100284Y38777D01*
X100000Y38833D01*
X99022D01*
X98941Y39027D01*
X98476Y39492D01*
X97868Y39744D01*
X97211D01*
X96603Y39492D01*
X96138Y39027D01*
X95886Y38419D01*
Y37762D01*
X96138Y37154D01*
X96603Y36689D01*
X97211Y36437D01*
X97610D01*
X97959Y35975D01*
X97953Y35959D01*
Y35777D01*
X97868Y35315D01*
X97211Y35315D01*
X96603Y35063D01*
X96138Y34598D01*
X95886Y33990D01*
Y33332D01*
X96138Y32725D01*
X96603Y32260D01*
X97211Y32008D01*
X97610D01*
X97959Y31546D01*
X97953Y31530D01*
Y30918D01*
X97940Y30858D01*
X97584Y30457D01*
X97199D01*
X96591Y30205D01*
X96126Y29740D01*
X95874Y29132D01*
Y28474D01*
X96126Y27866D01*
X96591Y27401D01*
X97199Y27149D01*
X97668D01*
X97988Y26775D01*
X98018Y26687D01*
X97989Y26617D01*
Y25959D01*
X98241Y25351D01*
X98706Y24886D01*
X99314Y24634D01*
X99972D01*
X100579Y24886D01*
X100857Y24501D01*
X98906Y22550D01*
X98814Y22412D01*
X98697Y22295D01*
X98633Y22141D01*
X98541Y22004D01*
X98508Y21841D01*
X98445Y21687D01*
Y21521D01*
X98413Y21358D01*
X98445Y21195D01*
Y21029D01*
X98508Y20876D01*
X98541Y20713D01*
X98633Y20575D01*
X98697Y20422D01*
X98814Y20304D01*
X98906Y20166D01*
X99044Y20074D01*
X99162Y19956D01*
X99315Y19893D01*
X99453Y19801D01*
X99616Y19768D01*
X99770Y19705D01*
X99936D01*
X100098Y19672D01*
X100261Y19705D01*
X100427D01*
X100581Y19768D01*
X100744Y19801D01*
X100882Y19893D01*
X101035Y19956D01*
X101153Y20074D01*
X101291Y20166D01*
X103651Y22527D01*
X115095D01*
X115205Y22417D01*
X115358Y22354D01*
X115497Y22261D01*
X115659Y22229D01*
X115813Y22165D01*
X115979D01*
X116142Y22133D01*
X116305Y22165D01*
X116471D01*
X116624Y22229D01*
X116787Y22261D01*
X116925Y22354D01*
X117078Y22417D01*
X117196Y22535D01*
X117334Y22627D01*
X117426Y22765D01*
X117543Y22882D01*
X117607Y23036D01*
X117699Y23174D01*
X117732Y23337D01*
X117795Y23490D01*
Y23656D01*
X117828Y23819D01*
X117795Y23982D01*
Y24148D01*
X117732Y24301D01*
X117699Y24464D01*
X117607Y24602D01*
X117543Y24756D01*
X117426Y24873D01*
X117334Y25011D01*
X117299Y25045D01*
X117507Y25545D01*
X118089D01*
X118876Y24759D01*
X118819Y24620D01*
Y23962D01*
X119071Y23355D01*
X119536Y22889D01*
X120143Y22638D01*
X120801D01*
X121409Y22889D01*
X121874Y23355D01*
X122126Y23962D01*
Y24620D01*
X121874Y25228D01*
X121409Y25693D01*
X120801Y25945D01*
X120143D01*
X119894Y25841D01*
X119558Y26177D01*
X119749Y26639D01*
X121870D01*
X122154Y26696D01*
X122395Y26857D01*
X124477Y28939D01*
X124671Y28858D01*
X125329D01*
X125937Y29110D01*
X126402Y29575D01*
X126654Y30183D01*
Y30688D01*
X126655Y30691D01*
X127025Y30966D01*
X127115Y30997D01*
X127525Y30827D01*
X128183D01*
X128791Y31078D01*
X129256Y31544D01*
X129508Y32151D01*
Y32514D01*
X130008Y32721D01*
X133136Y29593D01*
X133377Y29432D01*
X133661Y29375D01*
X139665D01*
X139950Y29432D01*
X140190Y29593D01*
X148438Y37840D01*
X150486D01*
X150567Y37646D01*
X151032Y37181D01*
X151640Y36929D01*
X152297D01*
X152905Y37181D01*
X153370Y37646D01*
X153622Y38254D01*
Y38518D01*
X154122Y38725D01*
X155064Y37783D01*
Y35242D01*
X154870Y35162D01*
X154405Y34696D01*
X154154Y34089D01*
Y33431D01*
X154405Y32823D01*
X154870Y32358D01*
X155478Y32106D01*
X156136D01*
X156744Y32358D01*
X157209Y32823D01*
X157461Y33431D01*
Y34089D01*
X157209Y34696D01*
X156744Y35162D01*
X156550Y35242D01*
Y38091D01*
X156493Y38375D01*
X156332Y38616D01*
X153773Y41175D01*
X153532Y41336D01*
X153485Y41345D01*
X153248Y41392D01*
D02*
G37*
G36*
X-18268Y31815D02*
Y30413D01*
X-16866D01*
X-17106Y30994D01*
X-17687Y31575D01*
X-18268Y31815D01*
D02*
G37*
G36*
X-19449D02*
X-20029Y31575D01*
X-20610Y30994D01*
X-20851Y30413D01*
X-19449D01*
Y31815D01*
D02*
G37*
G36*
X-12953Y31815D02*
Y30413D01*
X-11551D01*
X-11791Y30994D01*
X-12372Y31575D01*
X-12953Y31815D01*
D02*
G37*
G36*
X-14134Y31815D02*
X-14714Y31575D01*
X-15296Y30994D01*
X-15536Y30413D01*
X-14134D01*
Y31815D01*
D02*
G37*
G36*
X82612Y44469D02*
X81954D01*
X81347Y44217D01*
X80882Y43752D01*
X80630Y43144D01*
Y42486D01*
X80882Y41878D01*
X81347Y41413D01*
X81541Y41333D01*
Y22323D01*
X81069D01*
X80461Y22071D01*
X79996Y21606D01*
X79744Y20998D01*
Y20340D01*
X79996Y19733D01*
X80461Y19267D01*
X81069Y19016D01*
X81726D01*
X82334Y19267D01*
X82799Y19733D01*
X83051Y20340D01*
Y20998D01*
X82950Y21242D01*
X82969Y21271D01*
X83026Y21555D01*
Y41333D01*
X83220Y41413D01*
X83685Y41878D01*
X83937Y42486D01*
Y43144D01*
X83685Y43752D01*
X83220Y44217D01*
X82612Y44469D01*
D02*
G37*
G36*
X-14134Y5807D02*
X-15536D01*
X-15296Y5227D01*
X-14714Y4645D01*
X-14134Y4405D01*
Y5807D01*
D02*
G37*
G36*
X-16866Y5807D02*
X-18268D01*
Y4405D01*
X-17687Y4645D01*
X-17106Y5227D01*
X-16866Y5807D01*
D02*
G37*
G36*
X-19449D02*
X-20851D01*
X-20610Y5227D01*
X-20029Y4645D01*
X-19449Y4405D01*
Y5807D01*
D02*
G37*
G36*
X-17992Y3664D02*
X-20354D01*
X-21022Y3576D01*
X-21645Y3318D01*
X-22179Y2908D01*
X-22590Y2373D01*
X-22848Y1751D01*
X-22858Y1673D01*
X-17992D01*
Y3664D01*
D02*
G37*
G36*
X-29134D02*
X-30118D01*
Y1673D01*
X-26630D01*
X-26641Y1751D01*
X-26899Y2373D01*
X-27309Y2908D01*
X-27843Y3318D01*
X-28466Y3576D01*
X-29134Y3664D01*
D02*
G37*
G36*
X-17992Y492D02*
X-22858D01*
X-22848Y415D01*
X-22590Y-208D01*
X-22179Y-742D01*
X-21645Y-1153D01*
X-21022Y-1410D01*
X-20354Y-1498D01*
X-17992D01*
Y492D01*
D02*
G37*
G36*
X-26630D02*
X-30118D01*
Y-1498D01*
X-29134D01*
X-28466Y-1410D01*
X-27843Y-1153D01*
X-27309Y-742D01*
X-26899Y-208D01*
X-26641Y415D01*
X-26630Y492D01*
D02*
G37*
G36*
X74646Y-3584D02*
Y-7677D01*
X78397D01*
X78274Y-6743D01*
X77838Y-5690D01*
X77144Y-4785D01*
X76239Y-4091D01*
X75186Y-3655D01*
X74646Y-3584D01*
D02*
G37*
G36*
X73465D02*
X72925Y-3655D01*
X71871Y-4091D01*
X70966Y-4785D01*
X70272Y-5690D01*
X69836Y-6743D01*
X69713Y-7677D01*
X73465D01*
Y-3584D01*
D02*
G37*
G36*
X118931Y10433D02*
X117289D01*
X115667Y10176D01*
X114105Y9669D01*
X112642Y8923D01*
X111314Y7958D01*
X110152Y6797D01*
X109187Y5468D01*
X108441Y4005D01*
X107934Y2443D01*
X107677Y821D01*
Y-821D01*
X107934Y-2443D01*
X108441Y-4005D01*
X109187Y-5468D01*
X110152Y-6797D01*
X111314Y-7958D01*
X112642Y-8923D01*
X114105Y-9669D01*
X115667Y-10176D01*
X117289Y-10433D01*
X118931D01*
X120553Y-10176D01*
X122115Y-9669D01*
X123578Y-8923D01*
X124907Y-7958D01*
X126068Y-6797D01*
X127033Y-5468D01*
X127779Y-4005D01*
X128286Y-2443D01*
X128543Y-821D01*
Y821D01*
X128286Y2443D01*
X127779Y4005D01*
X127033Y5468D01*
X126068Y6797D01*
X124907Y7958D01*
X123578Y8923D01*
X122115Y9669D01*
X120553Y10176D01*
X118931Y10433D01*
D02*
G37*
G36*
X155947Y97055D02*
X155289D01*
X154681Y96803D01*
X154263Y96385D01*
X147563D01*
X147187Y96310D01*
X146868Y96097D01*
X140242Y89471D01*
X140028Y89152D01*
X139953Y88776D01*
Y75882D01*
X140028Y75506D01*
X140242Y75187D01*
X149796Y65632D01*
Y63851D01*
X149378Y63433D01*
X149126Y62825D01*
Y62167D01*
X149378Y61559D01*
X149843Y61094D01*
X150451Y60843D01*
X151108D01*
X151716Y61094D01*
X152181Y61559D01*
X152433Y62167D01*
Y62825D01*
X152181Y63433D01*
X151763Y63851D01*
Y66039D01*
X151688Y66416D01*
X151475Y66735D01*
X141920Y76289D01*
Y83486D01*
X142420Y83693D01*
X142515Y83599D01*
X143039Y83382D01*
Y85268D01*
Y87154D01*
X142515Y86936D01*
X142420Y86842D01*
X141920Y87049D01*
Y88368D01*
X147970Y94418D01*
X154263D01*
X154681Y94000D01*
X155289Y93748D01*
X155947D01*
X156555Y94000D01*
X157020Y94465D01*
X157272Y95073D01*
Y95731D01*
X157020Y96338D01*
X156555Y96803D01*
X155947Y97055D01*
D02*
G37*
G36*
X116577Y97055D02*
X115919D01*
X115311Y96803D01*
X114893Y96385D01*
X108193D01*
X107817Y96310D01*
X107498Y96097D01*
X100872Y89471D01*
X100658Y89152D01*
X100584Y88776D01*
Y75882D01*
X100658Y75506D01*
X100872Y75187D01*
X110426Y65632D01*
Y63851D01*
X110008Y63433D01*
X109756Y62825D01*
Y62167D01*
X110008Y61559D01*
X110473Y61094D01*
X111081Y60843D01*
X111738D01*
X112346Y61094D01*
X112811Y61559D01*
X113063Y62167D01*
Y62825D01*
X112811Y63433D01*
X112393Y63851D01*
Y66039D01*
X112318Y66416D01*
X112105Y66735D01*
X102550Y76289D01*
Y83486D01*
X103050Y83693D01*
X103145Y83599D01*
X103669Y83382D01*
Y85268D01*
Y87154D01*
X103145Y86936D01*
X103050Y86842D01*
X102550Y87049D01*
Y88368D01*
X108600Y94418D01*
X114893D01*
X115311Y94000D01*
X115919Y93748D01*
X116577D01*
X117185Y94000D01*
X117650Y94465D01*
X117902Y95073D01*
Y95731D01*
X117650Y96338D01*
X117185Y96803D01*
X116577Y97055D01*
D02*
G37*
G36*
X77207D02*
X76549D01*
X75941Y96803D01*
X75523Y96385D01*
X68823D01*
X68446Y96310D01*
X68127Y96097D01*
X61501Y89471D01*
X61288Y89152D01*
X61213Y88776D01*
Y75882D01*
X61288Y75506D01*
X61501Y75187D01*
X71056Y65632D01*
Y63851D01*
X70638Y63433D01*
X70386Y62825D01*
Y62167D01*
X70638Y61559D01*
X71103Y61094D01*
X71710Y60843D01*
X72368D01*
X72976Y61094D01*
X73441Y61559D01*
X73693Y62167D01*
Y62825D01*
X73441Y63433D01*
X73023Y63851D01*
Y66039D01*
X72948Y66416D01*
X72735Y66735D01*
X63180Y76289D01*
Y83486D01*
X63680Y83693D01*
X63775Y83599D01*
X64299Y83382D01*
Y85268D01*
Y87154D01*
X63775Y86936D01*
X63680Y86842D01*
X63180Y87049D01*
Y88368D01*
X69230Y94418D01*
X75523D01*
X75941Y94000D01*
X76549Y93748D01*
X77207D01*
X77815Y94000D01*
X78280Y94465D01*
X78531Y95073D01*
Y95731D01*
X78280Y96338D01*
X77815Y96803D01*
X77207Y97055D01*
D02*
G37*
G36*
X148551Y91484D02*
Y90189D01*
X149847D01*
X149629Y90714D01*
X149076Y91267D01*
X148551Y91484D01*
D02*
G37*
G36*
X109181D02*
Y90189D01*
X110477D01*
X110259Y90714D01*
X109706Y91267D01*
X109181Y91484D01*
D02*
G37*
G36*
X69811D02*
Y90189D01*
X71107D01*
X70889Y90714D01*
X70336Y91267D01*
X69811Y91484D01*
D02*
G37*
G36*
X108000Y91484D02*
X107475Y91267D01*
X107475Y91267D01*
X106922Y90714D01*
X106704Y90189D01*
X108000D01*
D01*
Y91484D01*
D02*
G37*
G36*
X68630D02*
X68105Y91267D01*
X68105Y91267D01*
X67552Y90714D01*
X67334Y90189D01*
X68630D01*
Y90714D01*
Y91484D01*
D02*
G37*
G36*
X147370Y91484D02*
X146846Y91267D01*
X146292Y90714D01*
X146074Y90189D01*
X147370D01*
Y91484D01*
D02*
G37*
G36*
X113512Y87154D02*
Y85858D01*
X114807D01*
X114590Y86383D01*
X114036Y86936D01*
X113512Y87154D01*
D02*
G37*
G36*
X74142D02*
Y85858D01*
X75437D01*
X75220Y86383D01*
X74666Y86936D01*
X74142Y87154D01*
D02*
G37*
G36*
X152882Y87154D02*
Y85858D01*
X154177D01*
X153960Y86383D01*
X153406Y86936D01*
X152882Y87154D01*
D02*
G37*
G36*
X149847Y89008D02*
X147961D01*
X146074D01*
X146292Y88483D01*
X146846Y87930D01*
X147404Y87698D01*
Y87168D01*
X146846Y86936D01*
X146292Y86383D01*
X146060Y85824D01*
X145530D01*
X145299Y86383D01*
X144745Y86936D01*
X144220Y87154D01*
Y85268D01*
Y83382D01*
X144745Y83599D01*
X145299Y84153D01*
X145530Y84711D01*
X146060D01*
X146292Y84153D01*
X146846Y83599D01*
X147404Y83368D01*
Y82837D01*
X146846Y82606D01*
X146292Y82052D01*
X146074Y81528D01*
X147961D01*
X149847D01*
X149629Y82052D01*
X149076Y82606D01*
X148517Y82837D01*
Y83368D01*
D01*
X149076Y83599D01*
X149629Y84153D01*
X149861Y84711D01*
X150391D01*
X150622Y84153D01*
X151176Y83599D01*
X151701Y83382D01*
Y85268D01*
Y87154D01*
X151176Y86936D01*
X150622Y86383D01*
X150391Y85824D01*
X149861D01*
X149629Y86383D01*
X149076Y86936D01*
X148517Y87168D01*
Y87698D01*
X149076Y87930D01*
X149629Y88483D01*
X149847Y89008D01*
D02*
G37*
G36*
X110477D02*
X108591D01*
X106704D01*
X106801Y88776D01*
X106922Y88483D01*
X107475Y87930D01*
X108034Y87698D01*
Y87168D01*
X107475Y86936D01*
X106922Y86383D01*
X106690Y85824D01*
X106160D01*
X105929Y86383D01*
X105375Y86936D01*
X104850Y87154D01*
Y85268D01*
Y83382D01*
X105375Y83599D01*
X105929Y84153D01*
X106160Y84711D01*
X106690D01*
X106922Y84153D01*
X107475Y83599D01*
X108034Y83367D01*
Y82837D01*
X107475Y82606D01*
X106922Y82052D01*
X106704Y81528D01*
X108591D01*
X110477D01*
X110259Y82052D01*
X109706Y82606D01*
X109147Y82837D01*
Y83367D01*
X109706Y83599D01*
X110259Y84153D01*
X110491Y84711D01*
X111021D01*
X111252Y84153D01*
X111806Y83599D01*
X112331Y83382D01*
Y85268D01*
Y87154D01*
X111806Y86936D01*
X111252Y86383D01*
X111021Y85824D01*
X110491D01*
X110259Y86383D01*
X109706Y86936D01*
X109147Y87168D01*
Y87698D01*
X109706Y87930D01*
X110259Y88483D01*
X110477Y89008D01*
D02*
G37*
G36*
X71107D02*
X69221D01*
X67334D01*
X67431Y88776D01*
X67552Y88483D01*
X68105Y87930D01*
X68664Y87698D01*
Y87168D01*
X68105Y86936D01*
X67552Y86383D01*
X67320Y85824D01*
X66790D01*
X66559Y86383D01*
X66005Y86936D01*
X65480Y87154D01*
Y85268D01*
Y83382D01*
X66005Y83599D01*
X66559Y84153D01*
X66790Y84711D01*
X67320D01*
X67552Y84153D01*
X68105Y83599D01*
X68664Y83367D01*
Y82837D01*
X68105Y82606D01*
X67552Y82052D01*
X67334Y81528D01*
X69221D01*
X71107D01*
X70889Y82052D01*
X70336Y82606D01*
X69777Y82837D01*
Y83367D01*
X70336Y83599D01*
X70889Y84153D01*
X71121Y84711D01*
X71651D01*
X71882Y84153D01*
X72436Y83599D01*
X72961Y83382D01*
Y85268D01*
Y87154D01*
X72436Y86936D01*
X71882Y86383D01*
X71651Y85824D01*
X71121D01*
X70889Y86383D01*
X70336Y86936D01*
X69777Y87168D01*
Y87698D01*
X70336Y87930D01*
X70889Y88483D01*
X71107Y89008D01*
D02*
G37*
G36*
X154177Y84677D02*
X152882D01*
Y83382D01*
X153406Y83599D01*
X153960Y84153D01*
X154177Y84677D01*
D02*
G37*
G36*
X114807D02*
X113512D01*
Y83382D01*
X114036Y83599D01*
X114590Y84153D01*
X114807Y84677D01*
D02*
G37*
G36*
X75437D02*
X74142D01*
Y83382D01*
X74666Y83599D01*
X75220Y84153D01*
X75437Y84677D01*
D02*
G37*
G36*
X149847Y80347D02*
X148551D01*
Y79051D01*
X149076Y79268D01*
X149629Y79822D01*
X149847Y80347D01*
D02*
G37*
G36*
X147370D02*
X146074D01*
X146292Y79822D01*
X146846Y79268D01*
X147370Y79051D01*
Y80347D01*
D02*
G37*
G36*
X108000Y80347D02*
X106704D01*
X106922Y79822D01*
X107475Y79268D01*
X108000Y79051D01*
Y80347D01*
D02*
G37*
G36*
X68630D02*
X67334D01*
X67552Y79822D01*
X68105Y79268D01*
X68630Y79051D01*
Y80347D01*
D02*
G37*
G36*
X110477D02*
X109181D01*
Y79051D01*
X109706Y79268D01*
X110259Y79822D01*
X110477Y80347D01*
D02*
G37*
G36*
X71107D02*
X69811D01*
Y79051D01*
X70336Y79268D01*
X70889Y79822D01*
X71107Y80347D01*
D02*
G37*
%LPD*%
D10*
X108193Y95402D02*
X116248D01*
X111409Y62496D02*
Y64415D01*
X101567Y75882D02*
Y88776D01*
X108193Y95402D01*
X111409Y64415D02*
Y66039D01*
X101567Y75882D02*
X111409Y66039D01*
X147563Y95402D02*
X155618D01*
X150779Y62496D02*
Y64415D01*
X140937Y75882D02*
Y88776D01*
X147563Y95402D01*
X150779Y64415D02*
Y66039D01*
X140937Y75882D02*
X150779Y66039D01*
X72039Y64415D02*
Y66039D01*
Y62496D02*
Y64415D01*
X62197Y75882D02*
X72039Y66039D01*
X68823Y95402D02*
X76878D01*
X62197Y88776D02*
X68823Y95402D01*
X62197Y75882D02*
Y88776D01*
D12*
X100098Y21358D02*
X102953Y24213D01*
X115748D02*
X116142Y23819D01*
X102953Y24213D02*
X115748D01*
D13*
X37303Y46752D02*
X51968D01*
X57382Y52165D01*
X48740Y94882D02*
X57382Y86240D01*
Y52165D02*
Y86240D01*
D17*
X112795Y21378D02*
X114961Y19213D01*
Y15256D02*
Y19213D01*
X24606Y25787D02*
Y29376D01*
X23175Y30807D02*
X24606Y29376D01*
X10855Y25174D02*
X16488Y30807D01*
X22835Y25984D02*
Y28642D01*
X22441Y29035D02*
X22835Y28642D01*
X12627Y24440D02*
X17222Y29035D01*
X22441D01*
X16488Y30807D02*
X23175D01*
X5810Y18037D02*
X7145Y19373D01*
X5490Y18037D02*
X5810D01*
X5490Y20919D02*
X5716Y21145D01*
X10855Y25174D02*
Y25174D01*
X5716Y21145D02*
X6826D01*
X12627Y24440D02*
Y24440D01*
X7145Y19373D02*
X7560D01*
X12627Y24440D01*
X6826Y21145D02*
X10855Y25174D01*
X-18858Y16437D02*
X-13543Y19783D01*
X24606Y25787D02*
X25197Y25197D01*
X22047D02*
X22835Y25984D01*
X108591Y85268D02*
X112921D01*
X108591D02*
Y89598D01*
X104260Y85268D02*
X108591D01*
Y80937D02*
Y85268D01*
X147961Y85268D02*
X152291D01*
X147961D02*
Y89598D01*
X143630Y85268D02*
X147961D01*
Y80937D02*
Y85268D01*
X69221Y85268D02*
X73551D01*
X64890D02*
X69221D01*
Y89598D01*
Y80937D02*
Y85268D01*
D83*
X-10538Y1789D02*
G03*
X-10531Y1872I-505J82D01*
G01*
Y-1872D02*
G03*
X-10538Y-1789I-512J0D01*
G01*
X-10538Y1789D02*
G03*
X-10538Y-1789I10538J-1789D01*
G01*
X15689Y-124D02*
Y6643D01*
X13503Y7437D02*
X14705Y6235D01*
Y-532D02*
Y6235D01*
X14487Y7845D02*
Y13171D01*
X11713Y15945D02*
X14487Y13171D01*
X13503Y7437D02*
Y12678D01*
X14487Y7845D02*
X15689Y6643D01*
X14705Y-532D02*
X22441Y-8268D01*
X15689Y-124D02*
X22849Y-7283D01*
X-10531Y-10531D02*
Y-1872D01*
X-11713Y4512D02*
X-11516Y5132D01*
X-10531Y1872D02*
Y4724D01*
X-295Y14961D01*
X11220D01*
X-11713Y-10236D02*
Y4512D01*
X-703Y15945D02*
X11713D01*
X-11516Y5132D02*
X-703Y15945D01*
X155807Y33760D02*
Y38091D01*
X153248Y40650D02*
X155807Y38091D01*
X121870Y27382D02*
X125000Y30512D01*
X102047Y27382D02*
X121870D01*
X99643Y26288D02*
X118397D01*
X100626Y28803D02*
X102047Y27382D01*
X118397Y26288D02*
X120394Y24291D01*
X120472D01*
X-18012Y83169D02*
X-14764D01*
X-23858Y87539D02*
X-16437Y80118D01*
X-23425Y88583D02*
X-18012Y83169D01*
X-33229Y87539D02*
X-23858D01*
X-33661Y88583D02*
X-23425D01*
X-35078Y85690D02*
X-33229Y87539D01*
X-36122Y86122D02*
X-33661Y88583D01*
X-31782Y113179D02*
X-24321D01*
X-24213Y113287D01*
X-31890Y113071D02*
X-31782Y113179D01*
X-31890Y103071D02*
X-31604Y103356D01*
X-24498D01*
X-24213Y103642D01*
X-31890Y83071D02*
X-24311D01*
X-31890Y83071D02*
X-31890Y83071D01*
X-35078Y-11182D02*
Y85690D01*
X-36122Y-11614D02*
Y86122D01*
X-35078Y-11182D02*
X-30867Y-15393D01*
X-36122Y-11614D02*
X-31299Y-16437D01*
X-30867Y-15393D02*
X-16869D01*
X-31299Y-16437D02*
X-16437D01*
X-16869Y-15393D02*
X-11713Y-10236D01*
X-16437Y-16437D02*
X-10531Y-10531D01*
X22849Y-7283D02*
X36713D01*
X22441Y-8268D02*
X44055D01*
X11220Y14961D02*
X13503Y12678D01*
X36713Y-7283D02*
X41240Y-2756D01*
X54055Y-8268D02*
Y-7874D01*
X48937Y-2756D02*
X54055Y-7874D01*
X41240Y-2756D02*
X48937D01*
X118504Y46654D02*
Y46713D01*
X125787Y53996D01*
X128312D01*
X133627Y48681D01*
X155748D02*
X157283Y47146D01*
X133627Y48681D02*
X155748D01*
X110925Y45374D02*
X117224D01*
X118504Y46654D01*
X133661Y30118D02*
X139665D01*
X148130Y38583D02*
X151969D01*
X139665Y30118D02*
X148130Y38583D01*
X148327Y40650D02*
X153248D01*
X134069Y31102D02*
X138779D01*
X148327Y40650D01*
X127421Y36358D02*
X133661Y30118D01*
X127829Y37343D02*
X134069Y31102D01*
X123071Y36358D02*
X127421D01*
X116915Y31594D02*
X122663Y37343D01*
X127829D01*
X106496Y31594D02*
X116915D01*
X100000Y38091D02*
X106496Y31594D01*
X104738Y30610D02*
X117323D01*
X123071Y36358D01*
X99719Y35630D02*
X104738Y30610D01*
X117815Y29626D02*
X122638Y34449D01*
X100295Y33661D02*
X104331Y29626D01*
X117815D01*
X102559Y28445D02*
X119587D01*
X99803Y31201D02*
X102559Y28445D01*
X119587D02*
X123622Y32480D01*
X97528Y28803D02*
X100626D01*
X97539Y38091D02*
X100000D01*
X82284Y21555D02*
Y42815D01*
X81398Y20669D02*
X82284Y21555D01*
X99606Y35630D02*
X99719D01*
X122638Y34449D02*
X125000D01*
X97539Y33661D02*
X100295D01*
X127854Y32480D02*
X127854Y32480D01*
X123622Y32480D02*
X127854D01*
X99606Y31201D02*
X99803D01*
D86*
X71547Y57181D02*
X74594Y54134D01*
X77270D01*
X82565Y59429D01*
X91488D01*
X96606Y54311D01*
X108047D01*
X110917Y57181D01*
X113787Y54311D01*
X116817D01*
X121935Y59429D01*
X130562D01*
X135878Y54114D01*
X149409D01*
X150287Y54992D02*
Y57181D01*
X149409Y54114D02*
X150287Y54992D01*
D88*
X16752Y-14882D02*
X167303D01*
X11909Y-10039D02*
X13386Y-11516D01*
X16752Y-14882D01*
X4921Y12205D02*
X6299Y10827D01*
X2854Y12205D02*
X4921D01*
X167303Y-14882D02*
X171181Y-11004D01*
Y52933D01*
X167421Y56693D02*
X171181Y52933D01*
X162438Y56693D02*
X167421D01*
X157123Y51378D02*
X162438Y56693D01*
X134744Y51378D02*
X157123D01*
X129429Y56693D02*
X134744Y51378D01*
X128051Y56693D02*
X129429D01*
X123068D02*
X128051D01*
X88681Y56693D02*
X90354D01*
X83698D02*
X88681D01*
X117950Y51575D02*
X123068Y56693D01*
X95473Y51575D02*
X117950D01*
X90354Y56693D02*
X95473Y51575D01*
D90*
X6433Y10827D02*
X12205Y5055D01*
X6299Y10827D02*
X6433D01*
X12205Y-5055D02*
Y5055D01*
X11909Y-10039D02*
Y-5351D01*
X12205Y-5055D01*
D95*
X-30709Y73071D02*
D03*
D96*
Y83071D02*
D03*
Y93071D02*
D03*
Y103071D02*
D03*
Y113071D02*
D03*
Y123071D02*
D03*
X18740Y94882D02*
D03*
X28740D02*
D03*
X38740D02*
D03*
D97*
X-13543Y29823D02*
D03*
Y26476D02*
D03*
Y23130D02*
D03*
Y19783D02*
D03*
Y16437D02*
D03*
Y13091D02*
D03*
Y9744D02*
D03*
Y6398D02*
D03*
X-18858Y6398D02*
D03*
X-18858Y9744D02*
D03*
X-18858Y13091D02*
D03*
Y16437D02*
D03*
Y19783D02*
D03*
Y23130D02*
D03*
X-18858Y26476D02*
D03*
X-18858Y29823D02*
D03*
D98*
X-30709Y35138D02*
D03*
Y1083D02*
D03*
D99*
X-17402Y35138D02*
D03*
Y1083D02*
D03*
D100*
X44055Y-8268D02*
D03*
X54055D02*
D03*
X64055D02*
D03*
X74055D02*
D03*
D101*
X48740Y94882D02*
D03*
D102*
X115748Y33465D02*
D03*
D103*
X0Y0D02*
D03*
Y118110D02*
D03*
X118110Y0D02*
D03*
D104*
X73551Y85268D02*
D03*
X69221Y80937D02*
D03*
X64890Y85268D02*
D03*
X69221Y89598D02*
D03*
Y85268D02*
D03*
X108591D02*
D03*
Y89598D02*
D03*
X104260Y85268D02*
D03*
X108591Y80937D02*
D03*
X112921Y85268D02*
D03*
X152291Y85268D02*
D03*
X147961Y80937D02*
D03*
X143630Y85268D02*
D03*
X147961Y89598D02*
D03*
Y85268D02*
D03*
X105413Y46063D02*
D03*
X123327Y47933D02*
D03*
X51673Y74410D02*
D03*
X11319Y11417D02*
D03*
X136811Y-10138D02*
D03*
X152854Y-11024D02*
D03*
X152756Y-6102D02*
D03*
X137106Y-5118D02*
D03*
X92815Y-4626D02*
D03*
X92520Y8858D02*
D03*
X66929Y24705D02*
D03*
X58957Y16437D02*
D03*
X56496Y28543D02*
D03*
X100098Y21358D02*
D03*
X155807Y33760D02*
D03*
X164272Y60827D02*
D03*
X171555Y60728D02*
D03*
X168110Y63287D02*
D03*
X164075Y66043D02*
D03*
X171653Y65748D02*
D03*
X167126Y39469D02*
D03*
X167224Y43602D02*
D03*
X167126Y47441D02*
D03*
X112795Y21378D02*
D03*
X116142Y23819D02*
D03*
X120472Y24291D02*
D03*
X103937Y39173D02*
D03*
X114961Y15256D02*
D03*
X-14764Y83169D02*
D03*
X-16437Y80118D02*
D03*
X-24213Y113287D02*
D03*
Y103642D02*
D03*
X-24311Y83071D02*
D03*
X17618Y3543D02*
D03*
X40157Y13169D02*
D03*
X76476Y13681D02*
D03*
X18130Y47047D02*
D03*
X18183Y33179D02*
D03*
X33169Y34154D02*
D03*
X50847Y50358D02*
D03*
X27756Y7677D02*
D03*
X22982Y7726D02*
D03*
X17421Y25098D02*
D03*
X5490Y20919D02*
D03*
X26280Y11417D02*
D03*
X29665Y52301D02*
D03*
X37303Y46752D02*
D03*
Y34252D02*
D03*
X11152Y32677D02*
D03*
X16260Y-5896D02*
D03*
X13386Y-11516D02*
D03*
X19542Y-10379D02*
D03*
X16831Y-14862D02*
D03*
X123068Y56693D02*
D03*
X157283Y47146D02*
D03*
X118504Y46654D02*
D03*
X110925Y45374D02*
D03*
X18012Y295D02*
D03*
X6299Y10827D02*
D03*
X2756Y12205D02*
D03*
X144783Y31398D02*
D03*
X135138Y33071D02*
D03*
X81398Y20669D02*
D03*
X82284Y42815D02*
D03*
X97539Y38091D02*
D03*
X151969Y38583D02*
D03*
X99606Y35630D02*
D03*
X21063Y11417D02*
D03*
X128051Y56693D02*
D03*
X165945Y50886D02*
D03*
X88681Y56693D02*
D03*
X83698D02*
D03*
X162438Y56693D02*
D03*
X167421D02*
D03*
X157480Y58563D02*
D03*
X118110Y58563D02*
D03*
X78642Y58661D02*
D03*
X-14961Y43602D02*
D03*
X138681Y41535D02*
D03*
X100394Y-6102D02*
D03*
X125000Y30512D02*
D03*
X127854Y32480D02*
D03*
X125000Y34449D02*
D03*
X97539Y33661D02*
D03*
X99606Y31201D02*
D03*
X99643Y26288D02*
D03*
X97528Y28803D02*
D03*
X-18504Y88583D02*
D03*
X-18898Y69390D02*
D03*
X152165Y-492D02*
D03*
X137697Y4626D02*
D03*
X142520Y12992D02*
D03*
X130905Y7776D02*
D03*
X20374Y70669D02*
D03*
X33906Y60386D02*
D03*
X28839Y74213D02*
D03*
X-2953Y46850D02*
D03*
Y32087D02*
D03*
X25197Y25197D02*
D03*
X22047D02*
D03*
X5490Y18037D02*
D03*
X23622Y38189D02*
D03*
X33071D02*
D03*
Y47638D02*
D03*
X23622D02*
D03*
Y42913D02*
D03*
X33071D02*
D03*
X28346Y38189D02*
D03*
Y47638D02*
D03*
X28346Y42913D02*
D03*
X16437Y11417D02*
D03*
X39415Y17269D02*
D03*
X28693Y24653D02*
D03*
X51948Y26278D02*
D03*
X131110Y106886D02*
D03*
X131012Y102752D02*
D03*
X130996Y98716D02*
D03*
X101862Y62791D02*
D03*
X110917Y57181D02*
D03*
X116232Y62480D02*
D03*
X103043Y109740D02*
D03*
X116248Y95402D02*
D03*
X111409Y62496D02*
D03*
X106685Y61413D02*
D03*
X170480Y106886D02*
D03*
X170382Y102752D02*
D03*
X170366Y98716D02*
D03*
X141232Y62791D02*
D03*
X150287Y57181D02*
D03*
X155602Y62480D02*
D03*
X142413Y109740D02*
D03*
X155618Y95402D02*
D03*
X150779Y62496D02*
D03*
X146055Y61413D02*
D03*
X125779Y95567D02*
D03*
X165150Y91728D02*
D03*
X125779Y91728D02*
D03*
X165150Y95567D02*
D03*
X71547Y57181D02*
D03*
X76862Y62480D02*
D03*
X91740Y106886D02*
D03*
X91642Y102752D02*
D03*
X91626Y98716D02*
D03*
X86409Y95567D02*
D03*
Y91728D02*
D03*
X76878Y95402D02*
D03*
X67315Y61413D02*
D03*
X62492Y62791D02*
D03*
X72039Y62496D02*
D03*
X63673Y109740D02*
D03*
M02*
