M48
;Layer_Color=9474304
;FILE_FORMAT=2:5
INCH,LZ
;TYPE=PLATED
T01F00S00C0.00984
T02F00S00C0.01181
T03F00S00C0.01575
T05F00S00C0.03543
T06F00S00C0.03937
;TYPE=NON_PLATED
T07F00S00C0.10236
%
T01
X0115748Y0033465
T02
X0013386Y-0011516
X0016831Y-0014862
X0019542Y-0010379
X001626Y-0005896
X0018012Y0000295
X0092815Y-0004626
X0100394Y-0006102
X0137106Y-0005118
X0136811Y-0010138
X0152854Y-0011024
X0152756Y-0006102
X0152165Y-0000492
X0137697Y0004626
X0130905Y0007776
X014252Y0012992
X0144783Y0031398
X0135138Y0033071
X0127854Y003248
X0125Y0034449
Y0030512
X0120472Y0024291
X0116142Y0023819
X0112795Y0021378
X0114961Y0015256
X0100098Y0021358
X0099643Y0026288
X0097528Y0028803
X0099606Y0031201
Y003563
X0097539Y0033661
Y0038091
X0103937Y0039173
X0105413Y0046063
X0110925Y0045374
X0118504Y0046654
X0123327Y0047933
X0123068Y0056693
X0128051
X011811Y0058563
X0116232Y006248
X0111409Y0062496
X0110917Y0057181
X0106685Y0061413
X0101862Y0062791
X0088681Y0056693
X0083698
X0078642Y0058661
X0076862Y006248
X0072039Y0062496
X0071547Y0057181
X0067315Y0061413
X0062492Y0062791
X0051673Y007441
X0069221Y0080937
Y0085268
X0073551
X006489
X0069221Y0089598
X0076878Y0095402
X0086409Y0095567
Y0091728
X0091626Y0098716
X0091642Y0102752
X009174Y0106886
X0103043Y010974
X0108591Y0089598
Y0085268
X010426
X0108591Y0080937
X0112921Y0085268
X0116248Y0095402
X0125779Y0095567
Y0091728
X0130996Y0098716
X0131012Y0102752
X013111Y0106886
X0142413Y010974
X014363Y0085268
X0147961
X0152291
X0147961Y0080937
Y0089598
X0155618Y0095402
X016515Y0095567
Y0091728
X0170366Y0098716
X0170382Y0102752
X017048Y0106886
X0171653Y0065748
X0171555Y0060728
X016811Y0063287
X0164272Y0060827
X0164075Y0066043
X0162438Y0056693
X0167421
X0165945Y0050886
X0167126Y0047441
X0167224Y0043602
X0167126Y0039469
X0151969Y0038583
X0155807Y003376
X0157283Y0047146
X015748Y0058563
X0155602Y006248
X0150779Y0062496
X0150287Y0057181
X0146055Y0061413
X0141232Y0062791
X0138681Y0041535
X0082284Y0042815
X0081398Y0020669
X0076476Y0013681
X0058957Y0016437
X0056496Y0028543
X0051948Y0026278
X0066929Y0024705
X0039415Y0017269
X0040157Y0013169
X0037303Y0034252
X0033169Y0034154
X0033071Y0038189
Y0042913
Y0047638
X0037303Y0046752
X0033906Y0060386
X0050847Y0050358
X0063673Y010974
X009252Y0008858
X0027756Y0007677
X0022982Y0007726
X0021063Y0011417
X0016437Y0011417
X0011319Y0011417
X0006299Y0010827
X0002756Y0012205
X000549Y0018037
Y0020919
X0017421Y0025098
X0022047Y0025197
X0025197
X0028693Y0024653
X0028346Y0038189
X0023622
Y0042913
X0028346
X0028346Y0047638
X0023622
X001813Y0047047
X0018183Y0033179
X0011152Y0032677
X-0002953Y0032087
Y004685
X-0014961Y0043602
X-0018898Y006939
X-0016437Y0080118
X-0014764Y0083169
X-0018504Y0088583
X-0024311Y0083071
X-0024213Y0103642
Y0113287
X0020374Y0070669
X0028839Y0074213
X0029665Y0052301
X002628Y0011417
X0017618Y0003543
T03
X-0018858Y0006398
X-0018858Y0009744
X-0018858Y0013091
Y0016437
Y0019783
Y002313
X-0018858Y0026476
X-0018858Y0029823
X-0013543Y0029823
Y0026476
Y002313
Y0019783
Y0016437
Y0013091
Y0009744
Y0006398
T05
X003874Y0094882
X004874
X002874
X001874
X-0030709Y0093071
Y0103071
Y0113071
Y0123071
Y0083071
Y0073071
T06
X0044055Y-0008268
X0054055
X0064055
X0074055
T07
X0Y0
X011811
X0Y011811
M30
